<?xml version="1.0" encoding="utf-8"?>
<svg xmlns="http://www.w3.org/2000/svg" viewBox="0 137.5 498.334 250">
  <defs>
    <clipPath id="clipPath18" clipPathUnits="userSpaceOnUse">
      <path id="path16" d="M 0,1080 H 1080 V 0 H 0 Z"/>
    </clipPath>
  </defs>
  <g transform="matrix(0.608374, 0, 0, -0.608374, -93.129562, 575.135193)" id="g10" style="">
    <g id="g12">
      <g clip-path="url(#clipPath18)" id="g14">
        <g transform="translate(968.6315,674.9933)" id="g20">
          <path id="path22" style="fill:#000000;fill-opacity:1;fill-rule:nonzero;stroke:none" d="m 0,0 c 0,18.231 -14.779,33.01 -33.01,33.01 -18.231,0 -33.011,-14.779 -33.011,-33.01 0,-18.231 14.78,-33.01 33.011,-33.01 C -14.779,-33.01 0,-18.231 0,0"/>
        </g>
        <g transform="translate(350.5125,314.6099)" id="g24">
          <path id="path26" style="fill:#000000;fill-opacity:1;fill-rule:nonzero;stroke:none" d="m 0,0 c -119.637,0 -191.122,99.982 -191.122,196.647 0,129.095 98.93,196.647 196.647,196.647 105.962,0 171.429,-56.293 240.724,-115.903 21.968,-18.879 44.675,-38.401 69.978,-57.545 44.239,-33.472 97.423,-34.553 129.342,-2.634 27.293,27.293 31.463,66.035 21.455,90.183 -7.619,18.366 -22.005,27.672 -42.76,27.672 -9.742,0 -33.283,-2.786 -41.603,-28.658 -4.91,-15.277 -21.153,-23.844 -36.619,-18.802 -15.296,4.909 -23.731,21.304 -18.803,36.619 13.458,41.945 51.555,69.068 97.025,69.068 43.955,0 80.043,-23.787 96.552,-63.629 20.621,-49.773 6.596,-112.946 -34.079,-153.621 -53.052,-53.052 -137.587,-54.113 -205.65,-2.635 -26.744,20.243 -50.153,40.372 -72.793,59.838 -66.149,56.881 -118.405,101.82 -202.769,101.82 -51.412,0 -138.42,-29.151 -138.42,-138.42 0,-89.899 68.471,-138.421 132.895,-138.421 60.795,0 98.56,34.951 98.56,91.207 0,21.664 -9.325,43.404 -24.943,58.131 -16.509,15.599 -38.78,22.518 -66.415,21.115 -10.765,-0.625 -19.645,-4.397 -28.809,-12.206 -12.197,-10.444 -30.592,-9.003 -41.045,3.241 -10.434,12.225 -8.984,30.61 3.25,41.035 18.926,16.168 39.614,24.678 63.24,26.043 55.166,3.336 90.06,-18.31 109.743,-36.885 27.057,-25.531 43.206,-63.097 43.206,-100.474 C 156.787,61.449 92.315,0 0,0"/>
        </g>
      </g>
    </g>
  </g>
</svg>