<?xml version="1.0" encoding="UTF-8" standalone="no"?>
<svg
   viewBox="0 137.5 498.334 250"
   version="1.1"
   id="svg1"
   sodipodi:docname="LogoCosmicaNav.svg"
   inkscape:version="1.3.2 (091e20e, 2023-11-25, custom)"
   xmlns:inkscape="http://www.inkscape.org/namespaces/inkscape"
   xmlns:sodipodi="http://sodipodi.sourceforge.net/DTD/sodipodi-0.dtd"
   xmlns="http://www.w3.org/2000/svg"
   xmlns:svg="http://www.w3.org/2000/svg">
  <sodipodi:namedview
     id="namedview1"
     pagecolor="#505050"
     bordercolor="#ffffff"
     borderopacity="1"
     inkscape:showpageshadow="0"
     inkscape:pageopacity="0"
     inkscape:pagecheckerboard="1"
     inkscape:deskcolor="#505050"
     inkscape:zoom="1.269229"
     inkscape:cx="411.66723"
     inkscape:cy="228.09122"
     inkscape:window-width="1920"
     inkscape:window-height="1001"
     inkscape:window-x="-9"
     inkscape:window-y="-9"
     inkscape:window-maximized="1"
     inkscape:current-layer="svg1" />
  <defs
     id="defs1">
    <clipPath
       id="clipPath18"
       clipPathUnits="userSpaceOnUse">
      <path
         id="path16"
         d="M 0,1080 H 1080 V 0 H 0 Z" />
    </clipPath>
  </defs>
  <g
     transform="matrix(0.608374, 0, 0, -0.608374, -93.129562, 575.135193)"
     id="g10"
     style="">
    <g
       id="g12">
      <g
         clip-path="url(#clipPath18)"
         id="g14">
        <g
           transform="translate(968.6315,674.9933)"
           id="g20">
          <path
             id="path22"
             style="fill:#000000;fill-opacity:1;fill-rule:nonzero;stroke:none"
             d="m 0,0 c 0,18.231 -14.779,33.01 -33.01,33.01 -18.231,0 -33.011,-14.779 -33.011,-33.01 0,-18.231 14.78,-33.01 33.011,-33.01 C -14.779,-33.01 0,-18.231 0,0" />
        </g>
        <g
           transform="translate(350.5125,314.6099)"
           id="g24">
          <path
             id="path26"
             style="fill:#000000;fill-opacity:1;fill-rule:nonzero;stroke:none"
             d="m 0,0 c -119.637,0 -191.122,99.982 -191.122,196.647 0,129.095 98.93,196.647 196.647,196.647 105.962,0 171.429,-56.293 240.724,-115.903 21.968,-18.879 44.675,-38.401 69.978,-57.545 44.239,-33.472 97.423,-34.553 129.342,-2.634 27.293,27.293 31.463,66.035 21.455,90.183 -7.619,18.366 -22.005,27.672 -42.76,27.672 -9.742,0 -33.283,-2.786 -41.603,-28.658 -4.91,-15.277 -21.153,-23.844 -36.619,-18.802 -15.296,4.909 -23.731,21.304 -18.803,36.619 13.458,41.945 51.555,69.068 97.025,69.068 43.955,0 80.043,-23.787 96.552,-63.629 20.621,-49.773 6.596,-112.946 -34.079,-153.621 -53.052,-53.052 -137.587,-54.113 -205.65,-2.635 -26.744,20.243 -50.153,40.372 -72.793,59.838 -66.149,56.881 -118.405,101.82 -202.769,101.82 -51.412,0 -138.42,-29.151 -138.42,-138.42 0,-89.899 68.471,-138.421 132.895,-138.421 60.795,0 98.56,34.951 98.56,91.207 0,21.664 -9.325,43.404 -24.943,58.131 -16.509,15.599 -38.78,22.518 -66.415,21.115 -10.765,-0.625 -19.645,-4.397 -28.809,-12.206 -12.197,-10.444 -30.592,-9.003 -41.045,3.241 -10.434,12.225 -8.984,30.61 3.25,41.035 18.926,16.168 39.614,24.678 63.24,26.043 55.166,3.336 90.06,-18.31 109.743,-36.885 27.057,-25.531 43.206,-63.097 43.206,-100.474 C 156.787,61.449 92.315,0 0,0" />
        </g>
      </g>
    </g>
  </g>
  <path
     d="M 110.89409,245.75426 C 93.249407,244.02491 81.252061,240.70948 67.560698,233.77921 32.569246,216.06731 8.4104123,179.19895 4.5044516,137.55021 3.906926,131.17887 4.2494549,114.36025 5.099481,108.33348 7.125624,93.96793 10.804509,81.732861 16.632009,69.979123 31.549742,39.8909 60.267444,18.094495 95.32852,10.249379 105.99305,7.8631284 109.583,7.5176793 123.89411,7.5006043 c 13.46208,-0.016062 16.91377,0.2170319 26.59094,1.7956969 30.11703,4.9130738 57.18659,17.9706378 88.83346,42.8506548 7.25179,5.701185 14.55828,11.792004 31.71216,26.435831 27.16926,23.193693 38.73764,32.512433 47.15975,37.988853 7.04059,4.5781 16.86127,8.66214 25.3986,10.56229 5.36053,1.19309 18.37036,1.2822 23.16906,0.15869 15.68255,-3.67174 27.36446,-12.82481 34.61696,-27.12329 4.08484,-8.053335 5.87258,-15.525166 5.86978,-24.532863 -0.005,-16.50591 -6.90577,-27.98864 -19.21399,-31.972204 -4.60765,-1.491267 -11.99323,-1.736891 -16.90882,-0.562342 -8.51086,2.033616 -14.89667,7.402419 -17.61217,14.807249 -2.10003,5.726524 -4.1486,8.701865 -7.54236,10.954512 -10.49257,6.964571 -24.54311,1.226907 -27.0963,-11.06502 -0.69002,-3.321981 -0.24698,-6.879101 1.41434,-11.355555 6.90487,-18.605237 22.00422,-32.179652 41.35134,-37.175117 6.50368,-1.6792629 11.00668,-2.1159086 19.22919,-1.8646112 10.20674,0.3119394 17.24878,1.9534028 25.85991,6.0278122 30.31463,14.343572 43.55258,52.743576 31.08371,90.166159 -9.69041,29.08372 -32.09204,50.22783 -60.9155,57.49603 -6.9681,1.7571 -12.25604,2.35726 -20.77247,2.35761 -16.46798,6.8e-4 -29.89479,-3.23537 -45.69703,-11.01362 -13.94451,-6.86382 -25.96018,-16.01893 -65.39403,-49.82568 C 226.0707,86.357267 217.8638,79.681159 208.00028,72.488383 182.81163,54.120051 160.48355,45.031627 134.82859,42.704567 128.3743,42.119124 115.2006,42.440527 109.5153,43.322143 89.061042,46.493977 70.513192,56.043002 58.560215,69.555453 48.714242,80.686001 42.743381,94.18596 40.102425,111.28803 c -0.992619,6.42792 -0.988337,23.54773 0.0075,29.80653 3.451879,21.6959 13.370498,39.24162 29.475606,52.14138 18.509736,14.82581 43.627439,20.85323 67.111669,16.10456 23.29347,-4.71008 38.39823,-19.81749 42.60357,-42.61103 0.97613,-5.29077 0.972,-16.29915 -0.008,-20.77472 -2.24384,-10.24957 -6.67111,-18.38752 -13.82327,-25.40913 -9.91277,-9.73182 -22.482,-14.07593 -38.99253,-13.47638 -8.31661,0.302 -12.77918,1.90294 -18.87378,6.77093 -3.36907,2.69101 -6.08122,3.99066 -9.451354,4.52904 -9.428586,1.50623 -18.364373,-5.05155 -19.982221,-14.66452 -0.851793,-5.061193 0.926223,-10.820784 4.487956,-14.538017 4.285259,-4.472345 13.25617,-10.22206 20.155939,-12.918524 8.44165,-3.299038 14.77933,-4.348513 26.27996,-4.351787 15.34908,-0.0044 27.06252,2.45122 39.0154,8.17915 8.63948,4.140112 14.76898,8.371937 21.48884,14.835959 12.96632,12.472679 21.37627,28.668589 24.76614,47.694789 0.99158,5.56537 0.99858,20.59622 0.0126,26.98488 -3.95986,25.65703 -16.29346,46.00097 -36.11876,59.57693 -13.71854,9.39417 -29.37673,14.77685 -47.8637,16.45371 -4.00228,0.36302 -16.29565,0.44654 -19.50003,0.13248 z"
     id="path1"
     style="stroke-width:0.394;fill:#373937;stroke-dasharray:none;fill-opacity:1"
     transform="translate(0,137.5)" />
  <path
     style="fill:#373937;fill-opacity:1;stroke-width:0.155212;stroke-dasharray:none;stroke:none"
     d="m 473.31883,46.666837 c -13.96686,-1.913527 -21.50299,-17.606455 -14.3316,-29.843515 5.61687,-9.5844549 18.53022,-12.5673785 27.95094,-6.456535 5.78426,3.752015 8.8924,9.560512 8.8924,16.618098 0,4.063137 -0.73623,6.870396 -2.66498,10.161564 -3.95168,6.743017 -11.9865,10.597282 -19.84676,9.520388 z"
     id="path2"
     transform="translate(0,137.5)" />
</svg>
