<?xml version="1.0" encoding="UTF-8" standalone="no"?>
<svg
   viewBox="-82.826 -53.903 869.503 429.532"
   version="1.1"
   id="svg18"
   sodipodi:docname="Slogan.svg"
   inkscape:version="1.3.2 (091e20e, 2023-11-25, custom)"
   xmlns:inkscape="http://www.inkscape.org/namespaces/inkscape"
   xmlns:sodipodi="http://sodipodi.sourceforge.net/DTD/sodipodi-0.dtd"
   xmlns="http://www.w3.org/2000/svg"
   xmlns:svg="http://www.w3.org/2000/svg">
  <sodipodi:namedview
     id="namedview18"
     pagecolor="#505050"
     bordercolor="#ffffff"
     borderopacity="1"
     inkscape:showpageshadow="0"
     inkscape:pageopacity="0"
     inkscape:pagecheckerboard="1"
     inkscape:deskcolor="#505050"
     inkscape:zoom="1.4548541"
     inkscape:cx="434.7515"
     inkscape:cy="214.79817"
     inkscape:window-width="1920"
     inkscape:window-height="1001"
     inkscape:window-x="-9"
     inkscape:window-y="-9"
     inkscape:window-maximized="1"
     inkscape:current-layer="svg18" />
  <defs
     id="defs1">
    <view
       id="view-1"
       viewBox="981.651 49.312 2.294 0.573">
      <title>View 1</title>
    </view>
  </defs>
  <g
     transform="matrix(1, 0, 0, 1, -199.937576, -367.377258)"
     id="g18">
    <g
       id="g2">
      <defs
         id="defs2">
        <rect
           id="SVGID_1_"
           width="1080"
           height="1080" />
      </defs>
      <clipPath
         id="SVGID_2_">
        <rect
           width="1080"
           height="1080"
           overflow="visible"
           id="rect2" />
      </clipPath>
      <path
         clip-path="url(#SVGID_2_)"
         d="M311.695,699.559c-33.07,0-59.971-25.483-59.971-56.813c0-5.201,0.624-10.33,1.857-15.244 c1.851-7.38,9.321-11.845,16.709-10.016c7.38,1.847,11.859,9.335,10.012,16.705c-0.686,2.733-1.031,5.604-1.031,8.555 c0,18.077,16.831,29.268,32.424,29.268c20.99,0,37.432-18.147,37.432-41.318c0-38.343-31.626-41.319-41.319-41.319 c-21.323,0-34.204,10.886-52.025,25.941c-10.554,8.922-22.516,19.026-37.692,27.438c-25.144,13.916-54.864,11.657-75.708-5.811 c-15.732-13.172-24.098-32.612-22.377-51.999c1.56-17.62,11.204-32.738,26.453-41.481c11.957-6.85,26.568-8.115,39.059-3.416 c11.612,4.376,20.207,13.208,24.198,24.874c2.461,7.192-1.377,15.029-8.577,17.486c-7.192,2.51-15.02-1.372-17.49-8.573 c-1.641-4.797-5.17-7.003-7.846-8.007c-4.901-1.865-10.738-1.266-15.648,1.542c-7.429,4.259-11.943,11.361-12.71,20.014 c-0.924,10.411,3.797,21.045,12.63,28.452c12.029,10.079,29.559,11.191,44.664,2.825c12.814-7.103,23.211-15.891,33.263-24.381 c18.879-15.952,38.405-32.452,69.807-32.452c34.276,0,68.866,21.297,68.866,68.866 C376.674,669.313,348.132,699.559,311.695,699.559"
         id="path2" />
    </g>
    <g
       id="g3">
      <defs
         id="defs3">
        <rect
           id="SVGID_3_"
           width="1080"
           height="1080" />
      </defs>
      <clipPath
         id="SVGID_4_">
        <rect
           width="1080"
           height="1080"
           overflow="visible"
           id="rect3" />
      </clipPath>
      <path
         clip-path="url(#SVGID_4_)"
         d="M789.635,652.563c-12.438,0-24.848-3.479-35.178-10.437 c-16.311-10.985-26.461-31.143-25.86-51.346c0.548-18.444,10.024-34.434,26.005-43.874c13.675-8.07,40.279-8.106,54.697,12.857 c4.306,6.268,2.717,14.84-3.551,19.153c-6.24,4.286-14.841,2.726-19.153-3.551c-5.631-8.188-15.765-6.055-17.986-4.735 c-9.973,5.883-12.285,14.652-12.474,20.965c-0.322,10.814,5.191,21.942,13.71,27.682c11.46,7.711,28.165,7.692,39.75-0.035 c14.445-9.631,20.776-26.121,27.483-43.579c9.183-23.906,20.615-53.658,58.545-53.658c45.91,0,54.017,41.911,57.918,62.051 c0.689,3.587,1.3,6.843,2.034,9.479c2.431,8.59,6.682,9.988,13.953,9.486c7.235-0.448,14.149,5.229,14.661,12.832 c0.502,7.586-5.237,14.148-12.832,14.659c-29.932,1.955-39.607-19.969-42.288-29.51c-0.923-3.265-1.722-7.281-2.582-11.719 c-5.31-27.477-11.03-39.733-30.864-39.733c-17.359,0-22.794,9.873-32.827,35.993c-7.587,19.746-16.186,42.118-37.921,56.617 C814.473,649.093,802.045,652.563,789.635,652.563"
         id="path3" />
    </g>
    <g
       id="g4">
      <defs
         id="defs4">
        <rect
           id="SVGID_5_"
           width="1080"
           height="1080" />
      </defs>
      <clipPath
         id="SVGID_6_">
        <rect
           width="1080"
           height="1080"
           overflow="visible"
           id="rect4" />
      </clipPath>
      <path
         clip-path="url(#SVGID_6_)"
         d="M430.972,726.566c-9.339,0-18.418-2.789-26.264-8.179 c-10.379-7.12-17.521-18.167-19.588-30.29c-1.587-9.309-0.305-19.422,3.618-28.479c3.021-6.967,11.141-10.194,18.112-7.154 c6.981,3.021,10.187,11.128,7.165,18.112c-1.798,4.143-2.435,8.841-1.743,12.895c0.824,4.823,3.747,9.271,8.024,12.204 c3.026,2.089,8.034,4.295,14.684,2.933c17.323-3.488,18.055-16.383,16.951-23.763c-1.704-11.389-7.979-17.198-22.018-29.26 c-5.313-4.563-11.339-9.737-17.683-16.032c-14.289-14.203-16.745-37.644-5.604-53.371c7.653-10.796,20.651-17.145,33.645-16.437 c13.504,0.672,25.394,8.375,32.616,21.107c3.752,6.618,1.431,15.028-5.183,18.777c-6.627,3.774-15.029,1.425-18.777-5.184 c-2.555-4.502-6.025-6.994-10.038-7.191c-3.883-0.197-7.531,1.677-9.782,4.852c-3.09,4.357-2.808,12.59,2.537,17.906 c5.636,5.587,11.016,10.214,16.217,14.68c14.41,12.374,28.017,24.058,31.313,46.071c3.407,22.73-7.255,48.512-38.755,54.851 C437.267,726.252,434.106,726.566,430.972,726.566"
         id="path4" />
    </g>
    <g
       id="g5">
      <defs
         id="defs5">
        <rect
           id="SVGID_7_"
           width="1080"
           height="1080" />
      </defs>
      <clipPath
         id="SVGID_8_">
        <rect
           width="1080"
           height="1080"
           overflow="visible"
           id="rect5" />
      </clipPath>
      <path
         clip-path="url(#SVGID_8_)"
         d="M505.231,690.376c-3.524,0-7.049-1.345-9.738-4.035c-5.38-5.38-5.38-14.096,0-19.476 c9.227-9.229,12.473-25.09,15.61-40.433c4.216-20.605,9.461-46.241,35.442-46.241c25.21,0,30.401,27.725,34.194,47.964 c1.089,5.775,2.839,15.116,4.938,20.914c0.616,1.697,3.2,1.665,3.792-0.009c2.393-6.756,4.302-18.222,5.474-25.229 c3.918-23.529,8.806-52.824,34.244-52.824c25.206,0,30.397,27.727,34.199,47.964c1.285,6.863,3.511,18.746,6.151,23.759 c0.475,0.9,1.803,2.577,3.219,1.054c4.291-4.616,11.854-22.83,11.522-95.668c-0.036-7.604,6.105-13.8,13.71-13.836h0.063 c7.577,0,13.737,6.125,13.772,13.711c0.377,83.634-9.164,104.805-19.539,115.232c-5.811,5.828-13.136,8.787-21.779,8.787 c-25.206,0-30.397-27.726-34.2-47.964c-1.049-5.602-2.724-14.548-4.739-20.374c-0.673-1.939-3.533-1.88-4.187,0.061 c-2.297,6.814-4.131,17.829-5.27,24.637c-3.918,23.529-8.806,52.824-34.244,52.824c-25.206,0-30.401-27.728-34.199-47.964 c-1.176-6.265-3.132-16.704-5.471-22.293c-0.686-1.638-3.773-1.692-4.54,0.026c-2.359,5.298-4.357,15.067-5.569,20.983 c-3.582,17.521-8.043,39.319-23.121,54.393C512.279,689.031,508.755,690.376,505.231,690.376"
         id="path5" />
    </g>
    <g
       id="g6">
      <defs
         id="defs6">
        <rect
           id="SVGID_9_"
           width="1080"
           height="1080" />
      </defs>
      <clipPath
         id="SVGID_10_">
        <rect
           width="1080"
           height="1080"
           overflow="visible"
           id="rect6" />
      </clipPath>
      <path
         clip-path="url(#SVGID_10_)"
         d="M392.3,561.827c0-8.625-6.992-15.617-15.617-15.617s-15.616,6.992-15.616,15.617 s6.991,15.617,15.616,15.617S392.3,570.452,392.3,561.827"
         id="path6" />
    </g>
    <g
       id="g7">
      <defs
         id="defs7">
        <rect
           id="SVGID_11_"
           width="1080"
           height="1080" />
      </defs>
      <clipPath
         id="SVGID_12_">
        <rect
           width="1080"
           height="1080"
           overflow="visible"
           id="rect7" />
      </clipPath>
      <path
         clip-path="url(#SVGID_12_)"
         d="M761.368,334.914c0-8.625-6.992-15.617-15.617-15.617s-15.617,6.992-15.617,15.617 s6.992,15.617,15.617,15.617S761.368,343.539,761.368,334.914"
         id="path7" />
    </g>
    <g
       id="g8">
      <defs
         id="defs8">
        <rect
           id="SVGID_13_"
           width="1080"
           height="1080" />
      </defs>
      <clipPath
         id="SVGID_14_">
        <rect
           width="1080"
           height="1080"
           overflow="visible"
           id="rect8" />
      </clipPath>
      <path
         clip-path="url(#SVGID_14_)"
         d="M713.686,511.321c0-8.625-6.991-15.617-15.616-15.617s-15.617,6.992-15.617,15.617 s6.992,15.616,15.617,15.616S713.686,519.946,713.686,511.321"
         id="path8" />
    </g>
    <g
       id="g9">
      <defs
         id="defs9">
        <rect
           id="SVGID_15_"
           width="1080"
           height="1080" />
      </defs>
      <clipPath
         id="SVGID_16_">
        <rect
           width="1080"
           height="1080"
           overflow="visible"
           id="rect9" />
      </clipPath>
      <path
         clip-path="url(#SVGID_16_)"
         d="M908.994,597.117c0-8.625-6.992-15.616-15.617-15.616s-15.616,6.991-15.616,15.616 s6.991,15.617,15.616,15.617S908.994,605.742,908.994,597.117"
         id="path9" />
    </g>
    <g
       id="g10">
      <defs
         id="defs10">
        <rect
           id="SVGID_17_"
           width="1080"
           height="1080" />
      </defs>
      <clipPath
         id="SVGID_18_">
        <rect
           width="1080"
           height="1080"
           overflow="visible"
           id="rect10" />
      </clipPath>
      <path
         clip-path="url(#SVGID_18_)"
         d="M468.942,505.407c-56.6,0-90.418-47.3-90.418-93.031c0-61.074,46.803-93.032,93.031-93.032 c50.129,0,81.102,26.632,113.884,54.833c10.395,8.931,21.136,18.166,33.106,27.224c20.928,15.836,46.089,16.347,61.189,1.246 c12.911-12.913,14.885-31.24,10.149-42.665c-3.604-8.689-10.41-13.092-20.229-13.092c-4.608,0-15.746,1.318-19.683,13.558 c-2.322,7.228-10.007,11.281-17.323,8.895c-7.237-2.322-11.228-10.078-8.896-17.324c6.367-19.843,24.391-32.675,45.901-32.675 c20.794,0,37.867,11.253,45.678,30.102c9.756,23.547,3.12,53.434-16.122,72.677c-25.099,25.098-65.092,25.6-97.291,1.246 c-12.652-9.577-23.727-19.101-34.438-28.309c-31.295-26.909-56.017-48.17-95.929-48.17c-24.322,0-65.484,13.791-65.484,65.486 c0,42.529,32.393,65.485,62.871,65.485c28.761,0,46.628-16.535,46.628-43.149c0-10.249-4.412-20.534-11.802-27.501 c-7.81-7.38-18.346-10.653-31.42-9.99c-5.093,0.296-9.294,2.081-13.629,5.775c-5.77,4.941-14.473,4.259-19.418-1.533 c-4.936-5.784-4.25-14.482,1.538-19.414c8.953-7.648,18.741-11.674,29.918-12.32c26.098-1.578,42.606,8.662,51.918,17.45 c12.8,12.078,20.439,29.85,20.439,47.533C543.116,476.336,512.616,505.407,468.942,505.407"
         id="path10" />
    </g>
    <g
       id="g11">
      <defs
         id="defs11">
        <rect
           id="SVGID_19_"
           width="1080"
           height="1080" />
      </defs>
      <clipPath
         id="SVGID_20_">
        <rect
           width="1080"
           height="1080"
           overflow="visible"
           id="rect11" />
      </clipPath>
      <path
         clip-path="url(#SVGID_20_)"
         d="M524.73,716.811c0-3.075-0.1-4.582-0.202-5.693c0.856-0.251,2.824-0.502,3.681-0.502 c0.556,0,0.709,0.251,0.709,3.12c0.049,3.336,0.049,7.065,0.049,10.339c0,5.354,2.727,6.054,4.945,6.054 c2.367,0,4.385-1.508,5.191-2.565v-14.938c0-1.2,0.152-1.461,0.808-1.712c1.363-0.152,2.475-0.296,3.582-0.296 c0,1.104-0.148,4.689-0.148,9.073v8.125c0,2.466,0.603,2.977,2.02,3.228v0.198c-0.056,0.959-1.211,2.367-2.273,2.367 c-2.116,0-3.278-1.408-3.529-3.578c-1.461,1.568-3.129,2.421-4.187,2.923c-1.009,0.403-2.067,0.655-3.229,0.655 c-5.094,0-7.416-3.372-7.416-8.321V716.811L524.73,716.811z"
         id="path11" />
    </g>
    <g
       id="g12">
      <defs
         id="defs12">
        <rect
           id="SVGID_21_"
           width="1080"
           height="1080" />
      </defs>
      <clipPath
         id="SVGID_22_">
        <rect
           width="1080"
           height="1080"
           overflow="visible"
           id="rect12" />
      </clipPath>
      <path
         clip-path="url(#SVGID_22_)"
         d="M600.487,737.39c0,0.808-0.152,1.005-0.96,1.265c-1.211,0.152-2.225,0.197-3.436,0.197 c0.108-1.407,0.153-4.286,0.153-8.823v-19.771c0-1.614-0.352-2.528-0.854-2.824v-0.251c0.502-0.764,1.714-1.723,2.824-1.723 c1.157,0,1.91,1.363,2.02,3.337c3.021-2.27,5.495-3.337,7.817-3.337c4.439,0,8.922,3.436,8.922,10.697 c0,7.461-5.344,12.554-11.897,12.554c-1.768,0-3.533-0.547-4.591-1.255L600.487,737.39L600.487,737.39z M600.487,724.675 c1.004,0.609,2.672,1.111,4.284,1.111c3.076,0,7.668-2.116,7.668-9.128c0-4.636-2.628-7.667-6.15-7.667 c-2.421,0-4.798,1.516-5.802,2.421V724.675L600.487,724.675z"
         id="path12" />
    </g>
    <g
       id="g13">
      <defs
         id="defs13">
        <rect
           id="SVGID_23_"
           width="1080"
           height="1080" />
      </defs>
      <clipPath
         id="SVGID_24_">
        <rect
           width="1080"
           height="1080"
           overflow="visible"
           id="rect13" />
      </clipPath>
      <path
         clip-path="url(#SVGID_24_)"
         d="M684.246,717.716c-0.054,1.157-0.557,2.421-1.31,2.979c-1.166,0.753-3.281,1.255-5.397,1.255 c-5.146,0-11.45-2.466-11.45-11.298c0-7.003,5.291-11.953,12.149-11.953c3.336,0,5.703,1.166,6.357,1.874 c0,1.103-0.655,2.466-1.865,2.368c-1.362-0.655-3.021-1.061-4.636-1.061c-4.395,0-7.522,3.327-7.522,8.322 c0,6.608,4.742,8.42,8.223,8.42c1.819,0,3.938-0.404,5.354-1.005L684.246,717.716z"
         id="path13" />
    </g>
    <g
       id="g14">
      <defs
         id="defs14">
        <rect
           id="SVGID_25_"
           width="1080"
           height="1080" />
      </defs>
      <clipPath
         id="SVGID_26_">
        <rect
           width="1080"
           height="1080"
           overflow="visible"
           id="rect14" />
      </clipPath>
      <path
         clip-path="url(#SVGID_26_)"
         d="M733.735,722.038c1.657-2.019,4.591-6.151,6.761-10.394c-0.26-0.35-0.762-1.362-1.112-2.269 c-0.762-1.964-4.939-13.315-7.218-18.104c0.959-0.558,2.681-1.166,3.533-1.166c0.652,0,0.859,0.357,1.11,0.915 c1.266,3.073,4.638,12.705,5.9,16.291c2.017-4.546,4.842-13.063,5.748-17.207c0.807,0,1.865,0.151,2.627,0.457 c0.753,0.306,0.853,0.754,0.601,1.813c-1.256,4.447-3.175,10.491-6.053,16.75c-3.327,7.263-8.016,14.329-8.922,14.329 c-1.211,0-2.529-0.664-2.977-1.266L733.735,722.038L733.735,722.038z"
         id="path14" />
    </g>
    <g
       id="g15">
      <defs
         id="defs15">
        <rect
           id="SVGID_27_"
           width="1080"
           height="1080" />
      </defs>
      <clipPath
         id="SVGID_28_">
        <rect
           width="1080"
           height="1080"
           overflow="visible"
           id="rect15" />
      </clipPath>
      <path
         clip-path="url(#SVGID_28_)"
         d="M817.271,698.706c-0.046,1.157-0.557,2.421-1.31,2.978c-1.157,0.754-3.282,1.256-5.397,1.256 c-5.147,0-11.451-2.467-11.451-11.299c0-7.003,5.299-11.952,12.158-11.952c3.327,0,5.703,1.166,6.358,1.864 c0,1.111-0.655,2.476-1.865,2.377c-1.362-0.654-3.03-1.06-4.646-1.06c-4.385,0-7.516,3.327-7.516,8.322 c0,6.607,4.744,8.42,8.224,8.42c1.812,0,3.938-0.404,5.345-1.005L817.271,698.706z"
         id="path15" />
    </g>
    <g
       id="g16">
      <defs
         id="defs16">
        <rect
           id="SVGID_29_"
           width="1080"
           height="1080" />
      </defs>
      <clipPath
         id="SVGID_30_">
        <rect
           width="1080"
           height="1080"
           overflow="visible"
           id="rect16" />
      </clipPath>
      <path
         clip-path="url(#SVGID_30_)"
         d="M866.131,663.448c0-2.978-0.099-4.537-0.197-5.552c1.006-0.447,2.979-0.707,3.73-0.707 c0.556,0,0.708,0.26,0.708,3.281v24.317c0,2.467,0.099,5.192,0.198,6.601c-0.906,0.251-3.176,0.403-3.784,0.403 c-0.449,0-0.655-0.152-0.655-0.654V663.448L866.131,663.448z"
         id="path16" />
    </g>
    <g
       id="g17">
      <defs
         id="defs17">
        <rect
           id="SVGID_31_"
           width="1080"
           height="1080" />
      </defs>
      <clipPath
         id="SVGID_32_">
        <rect
           width="1080"
           height="1080"
           overflow="visible"
           id="rect17" />
      </clipPath>
      <path
         clip-path="url(#SVGID_32_)"
         d="M937.695,675.446c0,1.561-1.066,2.969-1.919,3.426c-0.808,0.456-2.923,1.111-4.94,1.111 c-7.012,0-10.851-4.188-10.851-11.255c0-6.348,3.839-11.996,10.491-11.996c5.748,0,8.224,4.285,8.321,8.365 c0,0.512-0.045,1.165-0.151,1.569c-0.145,0.852-2.564,1.462-4.287,1.766c-1.362,0.153-6.401,0.252-10.033,0.1 c0.054,5.146,3.175,8.069,7.611,8.069c2.271,0,4.744-0.753,5.649-1.264L937.695,675.446z M929.877,659.351 c-2.529,0-4.995,2.27-5.398,6.511c3.633,0.1,8.17,0.045,9.074,0c0.655-0.055,1.059-0.457,1.059-1.059 c0.055-3.076-1.506-5.452-4.688-5.452H929.877z"
         id="path17" />
    </g>
  </g>
  <path
     id="path18"
     style="fill:#373937;stroke-width:0.10654"
     d="M 628.80469 6.1777344 C 624.55332 6.184142 620.2209 8.0086525 617.08008 11.585938 C 610.7604 18.783559 613.0229 30.357733 621.62891 34.853516 C 626.50774 37.40228 630.52017 37.409977 635.50391 34.882812 C 640.868 32.162723 643.24207 28.499592 643.58594 22.414062 C 643.89056 17.023029 642.95418 14.585529 638.99414 10.453125 C 636.24302 7.5822696 632.55578 6.1720806 628.80469 6.1777344 z M 354.29102 6.2832031 C 333.77634 6.3806322 315.60644 11.953501 299.24219 23.140625 C 277.73214 37.845513 264.93155 60.656207 262.17969 89.189453 C 258.65827 125.70029 276.15424 161.4217 306.45898 179.59766 C 314.93478 184.68106 325.54925 188.52533 336.45898 190.46094 C 339.91469 191.07405 345.69471 191.2949 353.98828 191.13086 C 364.45764 190.9238 367.37111 190.62184 372.93945 189.16602 C 386.10337 185.72412 396.0706 180.35082 405.10938 171.82422 C 423.49319 154.48189 430.52015 125.09715 422.13867 100.61719 C 414.96036 79.651223 398.90774 64.397956 378.04492 58.720703 C 369.68553 56.44591 352.45462 56.039525 344.93359 57.941406 C 334.6393 60.544623 324.14456 67.055041 320.84375 72.882812 C 316.13601 81.19459 322.73969 92.449219 332.32422 92.449219 C 335.75995 92.449219 338.61351 91.30137 343.04102 88.140625 C 347.7943 84.74721 351.97497 83.511281 358.65039 83.525391 C 382.13903 83.575038 398.43967 99.182991 398.48047 121.66211 C 398.51808 142.39459 387.30024 157.29905 367.59766 162.69141 C 363.23206 163.8862 360.32051 164.1582 351.92578 164.1582 C 339.94485 164.1582 334.40447 162.98047 324.82422 158.40039 C 307.68257 150.20547 296.52762 136.71319 290.93359 117.41016 C 289.53753 112.59233 289.38153 110.61956 289.42383 98.291016 C 289.47954 82.070402 290.34703 77.815194 295.89453 66.560547 C 298.57109 61.130509 300.51609 58.323086 304.62695 53.953125 C 312.23514 45.86568 320.93356 40.365859 331.66797 36.855469 C 347.561 31.658059 368.7578 32.293388 386.57812 38.501953 C 403.53318 44.409019 417.70564 53.516951 441.625 73.876953 C 486.47768 112.05526 494.70514 117.94099 510.70898 123.30273 C 545.28884 134.88804 579.3497 121.44861 594.91797 90.074219 C 599.9711 79.890592 601.92758 71.657687 602.03516 60.142578 C 602.14498 48.388389 600.84908 42.358227 596.1582 32.785156 C 593.40111 27.158307 591.6812 24.674879 587.7832 20.703125 C 579.57895 12.343498 570.04596 7.8126099 558.11719 6.6035156 C 536.92237 4.4552173 518.67756 14.15161 509.56641 32.404297 C 505.20202 41.147495 505.29432 46.46026 509.90625 51.712891 C 514.16827 56.566994 521.42321 57.550364 526.97852 54.027344 C 529.58074 52.376996 530.55584 51.110892 532.66797 46.638672 C 535.68686 40.246452 537.6933 37.946113 542.32227 35.566406 C 546.88613 33.22012 554.51979 32.688736 560.15234 34.326172 C 572.70215 37.974486 578.77906 55.606918 573.21484 72.226562 C 569.09082 84.544884 559.07303 94.786167 547.47461 98.539062 C 542.94934 100.00331 534.95972 100.64165 529.60547 99.966797 C 519.01064 98.631439 509.93882 94.554404 498.8418 86.142578 C 490.4371 79.771578 489.61955 79.097147 468.08984 60.785156 C 447.30026 43.102675 440.41411 37.684676 429.23047 30.210938 C 406.48294 15.009342 387.64059 8.262203 363.22852 6.5761719 C 360.20047 6.3670416 357.2216 6.2692845 354.29102 6.2832031 z M 580.51953 182.5332 C 571.46217 182.81052 563.28891 191.55091 566.36914 202.14648 C 567.76116 206.93485 571.55816 210.89544 576.14453 212.3418 C 592.00274 217.34274 603.28657 197.62398 590.9375 186.49023 C 587.74402 183.61109 584.06374 182.42469 580.51953 182.5332 z M 778.77148 209.03906 C 773.19726 209.03927 767.62073 209.5388 763.89453 210.54102 C 750.94837 214.02304 741.73629 221.07019 733.57031 233.73438 C 729.04475 240.75284 726.99882 245.11885 720.375 261.88281 C 710.7491 286.24458 704.7111 296.47268 695.80859 303.50977 C 678.08415 317.5201 652.04456 313.06893 642.72266 294.43555 C 636.9554 282.90756 637.85838 270.21384 645.02734 262.04883 C 649.60729 256.83255 654.76251 254.89899 660.83203 256.12109 C 664.04087 256.76718 665.23315 257.51641 669.50586 261.56055 C 674.9024 266.66838 678.40857 268.20095 682.80078 267.37695 C 692.02761 265.64597 696.95363 255.94237 692.78711 247.70312 C 691.22507 244.61429 685.05276 238.35253 680.7168 235.45703 C 674.19646 231.103 666.9138 229.04171 657.79883 228.97461 C 646.50405 228.89148 639.13236 231.54826 630.49414 238.8125 C 622.06049 245.90472 615.56445 256.3561 613.09375 266.81055 C 611.28809 274.45095 611.94214 288.82082 614.44922 296.59375 C 621.47075 318.36355 636.93703 332.37701 659.59375 337.5 C 662.69381 338.20092 667.01447 338.42364 674.29492 338.25391 C 682.99812 338.05101 685.54653 337.73012 690.65039 336.19922 C 704.72397 331.9779 716.14605 323.81751 725.66602 311.17969 C 732.13957 302.58597 737.54432 291.92743 745.08789 272.88086 C 752.53335 254.08204 755.70985 247.93476 760.55664 242.95703 C 766.01123 237.35526 770.21752 235.89059 779.80273 236.25391 C 788.9331 236.59999 792.84047 238.16442 797.61328 243.38672 C 803.0308 249.31426 805.58046 256.64033 810.99219 281.81641 C 815.90397 304.66687 829.1382 316.45694 850.01562 316.58398 C 855.41282 316.61683 857.16682 316.36049 859.42773 315.20703 C 867.69168 310.99115 869.27481 300.008 862.51953 293.75586 C 859.34157 290.81459 857.46875 290.17179 850.7832 289.7207 C 845.33971 289.35342 844.17846 289.0525 842.63867 287.61523 C 839.63749 284.81393 838.43862 281.55344 835.81445 269.05664 C 834.43018 262.46453 832.365 254.13236 831.22461 250.54102 C 824.25898 228.60403 811.90371 215.45232 793.64453 210.54102 C 789.9198 209.53895 784.34578 209.03885 778.77148 209.03906 z M 581.73828 221.13672 C 576.72229 220.84124 571.5908 223.59347 569.00977 228.48242 C 567.49424 231.3531 567.40939 232.21692 567.40039 244.97852 C 567.3899 259.82575 566.42912 281.96973 565.30859 293.15625 C 563.17412 314.46604 558.66859 330.23785 554.54492 330.83203 C 551.82243 331.2243 550.36021 326.814 545.78711 304.38672 C 544.10374 296.13135 541.92126 286.91074 540.93555 283.89648 C 537.00083 271.86451 531.08262 263.80658 523.60547 260.30273 C 520.04867 258.6361 518.85893 258.44531 512.07812 258.44531 C 505.19231 258.44531 504.16937 258.61615 500.60742 260.36523 C 493.0216 264.09045 486.95612 273.00536 483.20898 285.93945 C 482.22337 289.34186 480.0181 299.81366 478.30859 309.20898 C 476.59918 318.6043 474.52898 328.65583 473.70703 331.54688 C 472.35652 336.2969 472.047 336.80273 470.49414 336.80273 C 469.02857 336.80273 468.59676 336.26644 467.5625 333.14844 C 466.89554 331.13766 464.95827 322.57681 463.25586 314.125 C 461.55346 305.67319 459.39346 296.40963 458.45703 293.54102 C 454.39769 281.10537 448.83604 273.45297 441.08008 269.63477 C 436.76051 267.50821 436.08738 267.38357 429.26758 267.41797 C 419.58433 267.46678 415.42024 269.04898 409.64062 274.88086 C 402.32855 282.25916 399.14911 290.11442 394.24023 312.93945 C 389.21512 336.30543 386.20475 344.46303 379.73242 352.24023 C 375.67133 357.12024 374.95117 358.78976 374.95117 363.33789 C 374.95117 368.65629 377.38767 372.65586 382.16797 375.18164 C 384.7153 376.52758 390.73986 376.64065 393.71289 375.39844 C 396.61822 374.18451 402.24062 367.97764 406.2207 361.5918 C 412.00341 352.31391 416.2066 340.00104 420.3125 320.30664 C 424.11911 302.04784 426.16045 295.89602 428.41016 295.91602 C 431.59323 295.94429 432.45741 298.47007 437.21289 321.64844 C 440.62218 338.26506 442.59506 344.85971 446.16602 351.58203 C 452.10054 362.75399 461.00167 368.00466 472.73047 367.25195 C 482.75063 366.60889 490.06418 361.2227 495.20508 350.69922 C 498.84939 343.23911 500.98742 335.4969 503.88281 319.27539 C 507.97568 296.3456 509.67622 289.44141 511.39648 288.78125 C 514.44847 287.61009 515.22869 289.76849 519.66992 311.68945 C 521.31945 319.83103 523.47642 328.96035 524.46289 331.97461 C 530.86672 351.54218 542.32693 360.36991 558.03906 357.83984 C 571.14093 355.73019 580.71965 346.23996 585.86133 330.27344 C 591.39505 313.08912 594.58841 280.13412 594.09766 245.27539 L 593.87305 229.35742 L 591.77148 226.7168 C 590.61552 225.26499 588.29647 223.35999 586.61719 222.48242 C 585.06914 221.67343 583.41031 221.23521 581.73828 221.13672 z M 52.654297 224.14648 C 40.106472 224.23678 27.15834 229.48075 17.28125 239.85156 C 7.3171761 250.31371 2.551908 263.77631 3.2929688 279.36914 C 3.715918 288.26855 5.148924 294.00765 8.9472656 302.00586 C 16.785538 318.51099 32.287807 331.14686 50.863281 336.17188 C 53.225762 336.81084 58.952001 337.43258 64.267578 337.62695 C 79.499371 338.1839 91.070511 335.02343 105.22656 326.43945 C 115.4044 320.26783 121.6194 315.64679 137.4707 302.46289 C 163.75927 280.59828 173.00093 275.97266 190.39648 275.97266 C 204.04499 275.97266 214.8155 280.0001 222.04297 287.80664 C 228.98003 295.29951 231.99006 303.98533 231.97266 316.46484 C 231.96053 325.15522 230.72079 330.93723 227.45312 337.56055 C 221.05745 350.52409 208.6921 358.51377 195.02539 358.50977 C 188.25388 358.50791 183.45366 357.31628 177.48828 354.1582 C 172.14049 351.32713 165.89609 344.57536 163.86523 339.42773 C 162.22339 335.26593 162.25148 335.88833 162.78516 316.81055 C 162.88566 313.21796 162.62434 312.22473 160.93555 309.78906 C 155.8211 302.4128 143.61997 302.31619 138.79102 309.61328 C 135.34611 314.8189 134.00868 330.02634 136.10352 340.16797 C 140.87169 363.25255 160.76654 381.37186 185.58594 385.23438 C 191.21454 386.11022 202.37577 385.60435 208.58594 384.19141 C 245.61344 375.76603 267.07241 336.45374 256.66797 296.10938 C 253.54187 283.9877 245.86204 271.86007 236.26953 263.89648 C 230.65672 259.23688 218.61604 253.20297 211.03711 251.25195 C 189.69102 245.75705 168.11022 248.95105 148.46875 260.51172 C 140.69377 265.0879 135.89588 268.6888 119.7207 282.0918 C 99.436383 298.89969 89.102598 305.75703 79.044922 309.08203 C 71.912539 311.43994 61.036521 311.3376 54.152344 308.84961 C 28.365764 299.53031 21.41188 266.75625 42.529297 254.07031 C 45.471098 252.30305 47.410371 251.67479 50.755859 251.40625 C 58.61036 250.77576 63.166803 253.19162 66.427734 259.71094 C 67.592515 262.03958 69.052761 264.5189 69.671875 265.2207 C 72.803875 268.77099 80.249337 270.19408 85.09375 268.16992 C 90.1686 266.04949 93.722961 259.49484 92.847656 253.87305 C 92.284568 250.25642 88.840152 243.33157 85.628906 239.35938 C 77.350617 229.11922 65.202109 224.05619 52.654297 224.14648 z M 259.47656 233.35742 C 243.33257 233.35742 238.34545 255.18734 252.9375 261.98242 C 263.50542 266.90368 274.53793 259.91637 274.58203 248.27344 C 274.61488 239.59951 268.29434 233.35742 259.47656 233.35742 z M 321.93555 246.52539 C 318.71572 246.51309 315.41766 246.93193 312.06641 247.78906 C 287.44786 254.08548 275.85922 280.72585 287.34766 304.61133 C 290.38239 310.92088 296.03675 317.04447 310.78906 329.99609 C 323.34092 341.01586 327.44191 345.06163 330.34375 349.2793 C 335.31583 356.50586 336.65875 368.08752 333.30469 374.81836 C 329.99124 381.46748 322.90057 385.42308 314.12109 385.52148 C 305.74639 385.61536 298.84061 380.92088 295.93555 373.15625 C 294.25247 368.6578 294.16945 365.52176 295.60156 360.49609 C 298.06461 351.85261 298.13993 351.32347 297.32617 348.30859 C 295.29667 340.78958 287.81727 336.63723 280.31445 338.86523 C 273.02876 341.02888 268.56199 350.06949 267.92188 363.95312 C 267.25818 378.34604 271.3779 389.05113 281.41797 399.02539 C 288.04552 405.60951 293.98525 409.04994 302.7793 411.39648 C 308.94391 413.04149 320.47197 412.86098 327.17969 411.01562 C 337.44169 408.19253 347.20297 401.93625 352.65039 394.68945 C 359.5158 385.5564 362.15861 377.37348 362.13281 365.32812 C 362.10749 353.5075 359.52879 344.64911 353.31836 335.04297 C 349.12474 328.55654 343.44992 322.75083 327.72266 308.85742 C 313.06474 295.90874 310.67431 293.03325 309.90625 287.42969 C 308.73883 278.91254 315.91159 272.01044 323.85156 274.00977 C 326.75632 274.7411 329.01629 276.78528 333.66602 282.89062 C 338.28079 288.95029 348.21236 289.05719 353.77148 283.10547 C 359.82363 276.626 357.83998 267.80706 348.14453 258.08984 C 340.55201 250.48027 331.59494 246.56231 321.93555 246.52539 z M 776.01172 268.41797 C 768.02566 268.34833 761.29437 274.60143 761.25977 283.73242 C 761.23702 289.72895 764.25322 294.57774 769.83594 297.51562 C 772.6995 299.02262 779.44424 298.94384 782.92383 297.36328 C 790.25035 294.03528 793.49713 284.93575 790.06055 277.35938 C 788.17427 273.20087 786.93793 271.93733 782.89648 270.03906 C 780.58327 268.95253 778.24783 268.43747 776.01172 268.41797 z M 813.14062 343.56055 C 810.6664 343.63564 808.05999 344.7852 806.00391 347.12695 C 801.54579 352.20446 802.60338 362.10089 807.91211 364.98633 C 811.34433 366.85184 818.99036 366.03002 819.88477 363.69922 C 820.22292 362.81801 819.75104 362.71603 816.9082 363.05273 C 811.32824 363.71359 807.29688 360.93534 807.29688 356.42773 C 807.29688 355.14297 807.71749 355.01758 812.06445 355.01758 C 816.82996 355.01758 820.28204 354.18874 821.11328 352.84375 C 821.35603 352.45097 821.31357 351.05654 821.01758 349.74414 C 820.09113 345.63642 816.75682 343.4508 813.14062 343.56055 z M 752.99609 343.92969 L 751.10547 344.14648 C 749.81777 344.29465 749.23444 344.74696 749.27344 345.56641 C 749.30494 346.22798 749.38231 353.73037 749.44531 362.23633 L 749.56055 377.70117 L 751.27734 377.70117 L 752.99609 377.70117 L 752.99609 360.81445 L 752.99609 343.92969 z M 813.22656 345.58008 C 814.12494 345.57679 814.83329 345.99539 815.85547 347.01758 C 817.82114 348.98325 818.17375 351.90502 816.52148 352.53906 C 815.92349 352.76853 813.56387 352.95703 811.2793 352.95703 L 807.125 352.95703 L 807.57227 350.72461 C 808.10518 348.06003 809.7158 346.3343 812.24609 345.7168 C 812.60678 345.62878 812.9271 345.58117 813.22656 345.58008 z M 812.10938 352.34375 C 811.175 352.34375 810.24008 352.38093 809.53125 352.45508 C 808.11358 352.60337 809.27404 352.72461 812.10938 352.72461 C 814.94467 352.72461 816.10322 352.60337 814.68555 352.45508 C 813.97671 352.38093 813.04371 352.34375 812.10938 352.34375 z M 694.62109 366.79492 C 691.89119 366.77046 688.80407 367.31812 687.17383 368.50586 C 684.77886 370.25075 682.19922 375.2647 682.19922 378.17578 C 682.19922 383.24933 685.04043 387.25881 689.70117 388.76367 C 691.89856 389.47316 697.20217 388.96561 698.45508 387.92578 C 700.14906 386.5199 699.47322 385.77942 696.93359 386.25586 C 693.63351 386.87496 690.18794 385.62549 687.99023 383.01367 C 686.39464 381.11734 686.21436 380.40462 686.48828 377.10156 C 686.75148 373.92776 687.14631 373.0345 689.04297 371.33984 C 691.08628 369.5142 691.66073 369.35642 695.44922 369.56641 C 698.22143 369.72008 699.70197 369.52573 699.88281 368.98438 C 700.34979 367.58642 697.715 366.82264 694.62109 366.79492 z M 632.87305 377.01367 C 631.94046 377.01367 631.12625 378.67588 629.33594 384.23633 C 625.84582 395.07614 625.90777 395.0644 622.34766 385.52344 C 619.38958 377.59598 618.39707 376.27057 616.39258 377.56641 C 615.75622 377.9778 616.55921 380.66867 619.57422 388.22461 L 623.60938 398.33398 L 621.23438 402.2793 C 619.9284 404.4498 618.39645 406.73985 617.83008 407.36719 C 616.91012 408.38619 616.93329 408.58687 618.05273 409.24609 C 619.08114 409.85169 619.62288 409.61629 621.07422 407.93359 C 623.63472 404.96491 628.7476 394.8941 631.60938 387.18164 C 634.39854 379.66486 634.72771 377.01367 632.87305 377.01367 z "
     transform="translate(-82.826,-53.903)" />
  <path
     style="fill:#373937;stroke-width:0.10654"
     d=""
     id="path19"
     transform="translate(-82.826,-53.903)" />
  <path
     style="fill:#373937;stroke-width:0.10654"
     d="m 554.43463,406.76937 c -3.41725,-1.68345 -4.88937,-4.55669 -4.89242,-9.54887 -0.003,-4.88788 1.6372,-7.93957 5.47062,-10.17841 4.11838,-2.40526 13.88928,-1.31208 11.71278,1.31045 -0.59274,0.71421 -1.25104,0.76631 -2.81106,0.22248 -5.85649,-2.04158 -11.77344,3.3603 -10.59007,9.66821 0.96887,5.16449 4.17875,7.35243 9.9702,6.79595 3.6108,-0.34696 4.12296,0.0511 2.34868,1.82538 -1.4643,1.4643 -8.15852,1.40745 -11.20873,-0.0952 z"
     id="path20"
     transform="translate(-82.826,-53.903)" />
  <path
     style="fill:#373937;stroke-width:0.10654"
     d="m 479.28277,409.49123 c -0.2065,-16.39683 0.13679,-18.67319 2.51799,-16.69697 0.58604,0.48637 1.06553,1.3017 1.06553,1.81184 0,0.66784 0.89469,0.45182 3.19546,-0.77151 3.69438,-1.96432 4.89863,-2.0691 8.1529,-0.70938 3.75553,1.56916 5.26596,4.64283 4.99166,10.15786 -0.2458,4.94227 -1.33046,7.09615 -4.92216,9.7743 -1.49257,1.11293 -2.92219,1.41644 -6.65923,1.41373 l -4.75863,-0.003 v 5.33044 c 0,5.20651 -0.0394,5.33045 -1.69329,5.33045 h -1.69329 z m 11.46451,2.28805 c 1.2999,-0.54313 2.81608,-1.90136 3.4147,-3.05896 2.09047,-4.04253 0.87424,-11.59997 -2.04721,-12.72104 -1.9359,-0.74287 -5.12071,-0.46416 -7.24427,0.63398 l -2.05165,1.06094 0.19556,6.98586 c 0.1902,6.79453 0.24261,6.99891 1.91394,7.46246 2.63671,0.73132 3.2981,0.69003 5.81893,-0.36324 z"
     id="path21"
     transform="translate(-82.826,-53.903)" />
  <path
     style="fill:#373937;stroke-width:0.10654"
     d="m 478.83866,412.23783 c -0.25699,-14.1111 0.38109,-19.41494 2.33573,-19.41494 0.5525,0 1.00454,0.27622 1.00454,0.61382 0,1.09251 2.03348,1.43179 3.78859,0.63211 0.94064,-0.42858 1.71024,-0.97178 1.71024,-1.20712 0,-0.23533 0.85061,-0.36547 1.89023,-0.28919 1.03962,0.0763 2.46244,0.16383 3.16183,0.19454 0.69938,0.0307 2.32325,1.10749 3.60861,2.39285 2.19261,2.19261 2.337,2.62148 2.337,6.9415 0,8.40845 -3.17775,11.85124 -11.1695,12.10108 l -4.63964,0.14504 v 4.40467 c 0,4.8636 -0.81123,7.06516 -2.60177,7.06088 -1.06508,-0.003 -1.2025,-1.31088 -1.42586,-13.57524 z m 10.90117,-0.20959 c 0,-0.40035 0.30931,-0.53675 0.68735,-0.30311 0.37805,0.23365 0.68736,0.079 0.68736,-0.34368 0,-0.42266 0.26797,-0.60287 0.59549,-0.40045 0.32752,0.20242 1.16097,-0.25682 1.85212,-1.02053 1.61705,-1.78681 1.79209,-9.00123 0.29072,-11.98242 -0.91244,-1.8118 -1.41275,-2.06957 -4.12231,-2.12393 -1.6961,-0.034 -3.96144,0.23764 -5.03408,0.60369 l -1.95026,0.66554 0.23187,7.15516 c 0.17582,5.42549 0.48111,7.31247 1.2629,7.80588 1.40507,0.88679 5.49884,0.84499 5.49884,-0.0562 z"
     id="path22"
     transform="translate(-82.826,-53.903)" />
  <path
     style="fill:#373937;stroke-width:0.10654"
     d="m 410.21691,417.9725 c -1.91256,-1.64348 -1.93042,-1.73464 -2.15364,-10.99767 l -0.2251,-9.34046 h 1.69925 1.69924 l 0.24534,8.30987 c 0.2289,7.75345 0.35391,8.3978 1.86693,9.62296 2.11394,1.71177 4.95702,1.66785 7.21911,-0.11151 1.77568,-1.39675 1.81108,-1.58483 1.81108,-9.62296 v -8.19836 h 1.71839 1.71838 v 9.23019 c 0,7.45539 0.20668,9.43685 1.07486,10.30504 1.37558,1.37558 0.70397,2.4601 -1.52345,2.4601 -1.1641,0 -1.86145,-0.45614 -2.10166,-1.3747 -0.44522,-1.70251 -0.72156,-1.70251 -3.29226,0 -2.94341,1.94934 -7.3062,1.82302 -9.75647,-0.2825 z"
     id="path23"
     transform="translate(-82.826,-53.903)" />
</svg>
