<?xml version="1.0" encoding="utf-8"?>
<svg xmlns="http://www.w3.org/2000/svg" viewBox="-82.826 -53.903 869.503 429.532">
  <defs>
    <view id="view-1" viewBox="981.651 49.312 2.294 0.573">
      <title>View 1</title>
    </view>
  </defs>
  <g transform="matrix(1, 0, 0, 1, -199.937576, -367.377258)">
    <g>
      <defs>
        <rect id="SVGID_1_" width="1080" height="1080"/>
      </defs>
      <clipPath id="SVGID_2_">
        <rect width="1080" height="1080" overflow="visible"/>
      </clipPath>
      <path clip-path="url(#SVGID_2_)" d="M311.695,699.559c-33.07,0-59.971-25.483-59.971-56.813c0-5.201,0.624-10.33,1.857-15.244 c1.851-7.38,9.321-11.845,16.709-10.016c7.38,1.847,11.859,9.335,10.012,16.705c-0.686,2.733-1.031,5.604-1.031,8.555 c0,18.077,16.831,29.268,32.424,29.268c20.99,0,37.432-18.147,37.432-41.318c0-38.343-31.626-41.319-41.319-41.319 c-21.323,0-34.204,10.886-52.025,25.941c-10.554,8.922-22.516,19.026-37.692,27.438c-25.144,13.916-54.864,11.657-75.708-5.811 c-15.732-13.172-24.098-32.612-22.377-51.999c1.56-17.62,11.204-32.738,26.453-41.481c11.957-6.85,26.568-8.115,39.059-3.416 c11.612,4.376,20.207,13.208,24.198,24.874c2.461,7.192-1.377,15.029-8.577,17.486c-7.192,2.51-15.02-1.372-17.49-8.573 c-1.641-4.797-5.17-7.003-7.846-8.007c-4.901-1.865-10.738-1.266-15.648,1.542c-7.429,4.259-11.943,11.361-12.71,20.014 c-0.924,10.411,3.797,21.045,12.63,28.452c12.029,10.079,29.559,11.191,44.664,2.825c12.814-7.103,23.211-15.891,33.263-24.381 c18.879-15.952,38.405-32.452,69.807-32.452c34.276,0,68.866,21.297,68.866,68.866 C376.674,669.313,348.132,699.559,311.695,699.559"/>
    </g>
    <g>
      <defs>
        <rect id="SVGID_3_" width="1080" height="1080"/>
      </defs>
      <clipPath id="SVGID_4_">
        <rect width="1080" height="1080" overflow="visible"/>
      </clipPath>
      <path clip-path="url(#SVGID_4_)" d="M789.635,652.563c-12.438,0-24.848-3.479-35.178-10.437 c-16.311-10.985-26.461-31.143-25.86-51.346c0.548-18.444,10.024-34.434,26.005-43.874c13.675-8.07,40.279-8.106,54.697,12.857 c4.306,6.268,2.717,14.84-3.551,19.153c-6.24,4.286-14.841,2.726-19.153-3.551c-5.631-8.188-15.765-6.055-17.986-4.735 c-9.973,5.883-12.285,14.652-12.474,20.965c-0.322,10.814,5.191,21.942,13.71,27.682c11.46,7.711,28.165,7.692,39.75-0.035 c14.445-9.631,20.776-26.121,27.483-43.579c9.183-23.906,20.615-53.658,58.545-53.658c45.91,0,54.017,41.911,57.918,62.051 c0.689,3.587,1.3,6.843,2.034,9.479c2.431,8.59,6.682,9.988,13.953,9.486c7.235-0.448,14.149,5.229,14.661,12.832 c0.502,7.586-5.237,14.148-12.832,14.659c-29.932,1.955-39.607-19.969-42.288-29.51c-0.923-3.265-1.722-7.281-2.582-11.719 c-5.31-27.477-11.03-39.733-30.864-39.733c-17.359,0-22.794,9.873-32.827,35.993c-7.587,19.746-16.186,42.118-37.921,56.617 C814.473,649.093,802.045,652.563,789.635,652.563"/>
    </g>
    <g>
      <defs>
        <rect id="SVGID_5_" width="1080" height="1080"/>
      </defs>
      <clipPath id="SVGID_6_">
        <rect width="1080" height="1080" overflow="visible"/>
      </clipPath>
      <path clip-path="url(#SVGID_6_)" d="M430.972,726.566c-9.339,0-18.418-2.789-26.264-8.179 c-10.379-7.12-17.521-18.167-19.588-30.29c-1.587-9.309-0.305-19.422,3.618-28.479c3.021-6.967,11.141-10.194,18.112-7.154 c6.981,3.021,10.187,11.128,7.165,18.112c-1.798,4.143-2.435,8.841-1.743,12.895c0.824,4.823,3.747,9.271,8.024,12.204 c3.026,2.089,8.034,4.295,14.684,2.933c17.323-3.488,18.055-16.383,16.951-23.763c-1.704-11.389-7.979-17.198-22.018-29.26 c-5.313-4.563-11.339-9.737-17.683-16.032c-14.289-14.203-16.745-37.644-5.604-53.371c7.653-10.796,20.651-17.145,33.645-16.437 c13.504,0.672,25.394,8.375,32.616,21.107c3.752,6.618,1.431,15.028-5.183,18.777c-6.627,3.774-15.029,1.425-18.777-5.184 c-2.555-4.502-6.025-6.994-10.038-7.191c-3.883-0.197-7.531,1.677-9.782,4.852c-3.09,4.357-2.808,12.59,2.537,17.906 c5.636,5.587,11.016,10.214,16.217,14.68c14.41,12.374,28.017,24.058,31.313,46.071c3.407,22.73-7.255,48.512-38.755,54.851 C437.267,726.252,434.106,726.566,430.972,726.566"/>
    </g>
    <g>
      <defs>
        <rect id="SVGID_7_" width="1080" height="1080"/>
      </defs>
      <clipPath id="SVGID_8_">
        <rect width="1080" height="1080" overflow="visible"/>
      </clipPath>
      <path clip-path="url(#SVGID_8_)" d="M505.231,690.376c-3.524,0-7.049-1.345-9.738-4.035c-5.38-5.38-5.38-14.096,0-19.476 c9.227-9.229,12.473-25.09,15.61-40.433c4.216-20.605,9.461-46.241,35.442-46.241c25.21,0,30.401,27.725,34.194,47.964 c1.089,5.775,2.839,15.116,4.938,20.914c0.616,1.697,3.2,1.665,3.792-0.009c2.393-6.756,4.302-18.222,5.474-25.229 c3.918-23.529,8.806-52.824,34.244-52.824c25.206,0,30.397,27.727,34.199,47.964c1.285,6.863,3.511,18.746,6.151,23.759 c0.475,0.9,1.803,2.577,3.219,1.054c4.291-4.616,11.854-22.83,11.522-95.668c-0.036-7.604,6.105-13.8,13.71-13.836h0.063 c7.577,0,13.737,6.125,13.772,13.711c0.377,83.634-9.164,104.805-19.539,115.232c-5.811,5.828-13.136,8.787-21.779,8.787 c-25.206,0-30.397-27.726-34.2-47.964c-1.049-5.602-2.724-14.548-4.739-20.374c-0.673-1.939-3.533-1.88-4.187,0.061 c-2.297,6.814-4.131,17.829-5.27,24.637c-3.918,23.529-8.806,52.824-34.244,52.824c-25.206,0-30.401-27.728-34.199-47.964 c-1.176-6.265-3.132-16.704-5.471-22.293c-0.686-1.638-3.773-1.692-4.54,0.026c-2.359,5.298-4.357,15.067-5.569,20.983 c-3.582,17.521-8.043,39.319-23.121,54.393C512.279,689.031,508.755,690.376,505.231,690.376"/>
    </g>
    <g>
      <defs>
        <rect id="SVGID_9_" width="1080" height="1080"/>
      </defs>
      <clipPath id="SVGID_10_">
        <rect width="1080" height="1080" overflow="visible"/>
      </clipPath>
      <path clip-path="url(#SVGID_10_)" d="M392.3,561.827c0-8.625-6.992-15.617-15.617-15.617s-15.616,6.992-15.616,15.617 s6.991,15.617,15.616,15.617S392.3,570.452,392.3,561.827"/>
    </g>
    <g>
      <defs>
        <rect id="SVGID_11_" width="1080" height="1080"/>
      </defs>
      <clipPath id="SVGID_12_">
        <rect width="1080" height="1080" overflow="visible"/>
      </clipPath>
      <path clip-path="url(#SVGID_12_)" d="M761.368,334.914c0-8.625-6.992-15.617-15.617-15.617s-15.617,6.992-15.617,15.617 s6.992,15.617,15.617,15.617S761.368,343.539,761.368,334.914"/>
    </g>
    <g>
      <defs>
        <rect id="SVGID_13_" width="1080" height="1080"/>
      </defs>
      <clipPath id="SVGID_14_">
        <rect width="1080" height="1080" overflow="visible"/>
      </clipPath>
      <path clip-path="url(#SVGID_14_)" d="M713.686,511.321c0-8.625-6.991-15.617-15.616-15.617s-15.617,6.992-15.617,15.617 s6.992,15.616,15.617,15.616S713.686,519.946,713.686,511.321"/>
    </g>
    <g>
      <defs>
        <rect id="SVGID_15_" width="1080" height="1080"/>
      </defs>
      <clipPath id="SVGID_16_">
        <rect width="1080" height="1080" overflow="visible"/>
      </clipPath>
      <path clip-path="url(#SVGID_16_)" d="M908.994,597.117c0-8.625-6.992-15.616-15.617-15.616s-15.616,6.991-15.616,15.616 s6.991,15.617,15.616,15.617S908.994,605.742,908.994,597.117"/>
    </g>
    <g>
      <defs>
        <rect id="SVGID_17_" width="1080" height="1080"/>
      </defs>
      <clipPath id="SVGID_18_">
        <rect width="1080" height="1080" overflow="visible"/>
      </clipPath>
      <path clip-path="url(#SVGID_18_)" d="M468.942,505.407c-56.6,0-90.418-47.3-90.418-93.031c0-61.074,46.803-93.032,93.031-93.032 c50.129,0,81.102,26.632,113.884,54.833c10.395,8.931,21.136,18.166,33.106,27.224c20.928,15.836,46.089,16.347,61.189,1.246 c12.911-12.913,14.885-31.24,10.149-42.665c-3.604-8.689-10.41-13.092-20.229-13.092c-4.608,0-15.746,1.318-19.683,13.558 c-2.322,7.228-10.007,11.281-17.323,8.895c-7.237-2.322-11.228-10.078-8.896-17.324c6.367-19.843,24.391-32.675,45.901-32.675 c20.794,0,37.867,11.253,45.678,30.102c9.756,23.547,3.12,53.434-16.122,72.677c-25.099,25.098-65.092,25.6-97.291,1.246 c-12.652-9.577-23.727-19.101-34.438-28.309c-31.295-26.909-56.017-48.17-95.929-48.17c-24.322,0-65.484,13.791-65.484,65.486 c0,42.529,32.393,65.485,62.871,65.485c28.761,0,46.628-16.535,46.628-43.149c0-10.249-4.412-20.534-11.802-27.501 c-7.81-7.38-18.346-10.653-31.42-9.99c-5.093,0.296-9.294,2.081-13.629,5.775c-5.77,4.941-14.473,4.259-19.418-1.533 c-4.936-5.784-4.25-14.482,1.538-19.414c8.953-7.648,18.741-11.674,29.918-12.32c26.098-1.578,42.606,8.662,51.918,17.45 c12.8,12.078,20.439,29.85,20.439,47.533C543.116,476.336,512.616,505.407,468.942,505.407"/>
    </g>
    <g>
      <defs>
        <rect id="SVGID_19_" width="1080" height="1080"/>
      </defs>
      <clipPath id="SVGID_20_">
        <rect width="1080" height="1080" overflow="visible"/>
      </clipPath>
      <path clip-path="url(#SVGID_20_)" d="M524.73,716.811c0-3.075-0.1-4.582-0.202-5.693c0.856-0.251,2.824-0.502,3.681-0.502 c0.556,0,0.709,0.251,0.709,3.12c0.049,3.336,0.049,7.065,0.049,10.339c0,5.354,2.727,6.054,4.945,6.054 c2.367,0,4.385-1.508,5.191-2.565v-14.938c0-1.2,0.152-1.461,0.808-1.712c1.363-0.152,2.475-0.296,3.582-0.296 c0,1.104-0.148,4.689-0.148,9.073v8.125c0,2.466,0.603,2.977,2.02,3.228v0.198c-0.056,0.959-1.211,2.367-2.273,2.367 c-2.116,0-3.278-1.408-3.529-3.578c-1.461,1.568-3.129,2.421-4.187,2.923c-1.009,0.403-2.067,0.655-3.229,0.655 c-5.094,0-7.416-3.372-7.416-8.321V716.811L524.73,716.811z"/>
    </g>
    <g>
      <defs>
        <rect id="SVGID_21_" width="1080" height="1080"/>
      </defs>
      <clipPath id="SVGID_22_">
        <rect width="1080" height="1080" overflow="visible"/>
      </clipPath>
      <path clip-path="url(#SVGID_22_)" d="M600.487,737.39c0,0.808-0.152,1.005-0.96,1.265c-1.211,0.152-2.225,0.197-3.436,0.197 c0.108-1.407,0.153-4.286,0.153-8.823v-19.771c0-1.614-0.352-2.528-0.854-2.824v-0.251c0.502-0.764,1.714-1.723,2.824-1.723 c1.157,0,1.91,1.363,2.02,3.337c3.021-2.27,5.495-3.337,7.817-3.337c4.439,0,8.922,3.436,8.922,10.697 c0,7.461-5.344,12.554-11.897,12.554c-1.768,0-3.533-0.547-4.591-1.255L600.487,737.39L600.487,737.39z M600.487,724.675 c1.004,0.609,2.672,1.111,4.284,1.111c3.076,0,7.668-2.116,7.668-9.128c0-4.636-2.628-7.667-6.15-7.667 c-2.421,0-4.798,1.516-5.802,2.421V724.675L600.487,724.675z"/>
    </g>
    <g>
      <defs>
        <rect id="SVGID_23_" width="1080" height="1080"/>
      </defs>
      <clipPath id="SVGID_24_">
        <rect width="1080" height="1080" overflow="visible"/>
      </clipPath>
      <path clip-path="url(#SVGID_24_)" d="M684.246,717.716c-0.054,1.157-0.557,2.421-1.31,2.979c-1.166,0.753-3.281,1.255-5.397,1.255 c-5.146,0-11.45-2.466-11.45-11.298c0-7.003,5.291-11.953,12.149-11.953c3.336,0,5.703,1.166,6.357,1.874 c0,1.103-0.655,2.466-1.865,2.368c-1.362-0.655-3.021-1.061-4.636-1.061c-4.395,0-7.522,3.327-7.522,8.322 c0,6.608,4.742,8.42,8.223,8.42c1.819,0,3.938-0.404,5.354-1.005L684.246,717.716z"/>
    </g>
    <g>
      <defs>
        <rect id="SVGID_25_" width="1080" height="1080"/>
      </defs>
      <clipPath id="SVGID_26_">
        <rect width="1080" height="1080" overflow="visible"/>
      </clipPath>
      <path clip-path="url(#SVGID_26_)" d="M733.735,722.038c1.657-2.019,4.591-6.151,6.761-10.394c-0.26-0.35-0.762-1.362-1.112-2.269 c-0.762-1.964-4.939-13.315-7.218-18.104c0.959-0.558,2.681-1.166,3.533-1.166c0.652,0,0.859,0.357,1.11,0.915 c1.266,3.073,4.638,12.705,5.9,16.291c2.017-4.546,4.842-13.063,5.748-17.207c0.807,0,1.865,0.151,2.627,0.457 c0.753,0.306,0.853,0.754,0.601,1.813c-1.256,4.447-3.175,10.491-6.053,16.75c-3.327,7.263-8.016,14.329-8.922,14.329 c-1.211,0-2.529-0.664-2.977-1.266L733.735,722.038L733.735,722.038z"/>
    </g>
    <g>
      <defs>
        <rect id="SVGID_27_" width="1080" height="1080"/>
      </defs>
      <clipPath id="SVGID_28_">
        <rect width="1080" height="1080" overflow="visible"/>
      </clipPath>
      <path clip-path="url(#SVGID_28_)" d="M817.271,698.706c-0.046,1.157-0.557,2.421-1.31,2.978c-1.157,0.754-3.282,1.256-5.397,1.256 c-5.147,0-11.451-2.467-11.451-11.299c0-7.003,5.299-11.952,12.158-11.952c3.327,0,5.703,1.166,6.358,1.864 c0,1.111-0.655,2.476-1.865,2.377c-1.362-0.654-3.03-1.06-4.646-1.06c-4.385,0-7.516,3.327-7.516,8.322 c0,6.607,4.744,8.42,8.224,8.42c1.812,0,3.938-0.404,5.345-1.005L817.271,698.706z"/>
    </g>
    <g>
      <defs>
        <rect id="SVGID_29_" width="1080" height="1080"/>
      </defs>
      <clipPath id="SVGID_30_">
        <rect width="1080" height="1080" overflow="visible"/>
      </clipPath>
      <path clip-path="url(#SVGID_30_)" d="M866.131,663.448c0-2.978-0.099-4.537-0.197-5.552c1.006-0.447,2.979-0.707,3.73-0.707 c0.556,0,0.708,0.26,0.708,3.281v24.317c0,2.467,0.099,5.192,0.198,6.601c-0.906,0.251-3.176,0.403-3.784,0.403 c-0.449,0-0.655-0.152-0.655-0.654V663.448L866.131,663.448z"/>
    </g>
    <g>
      <defs>
        <rect id="SVGID_31_" width="1080" height="1080"/>
      </defs>
      <clipPath id="SVGID_32_">
        <rect width="1080" height="1080" overflow="visible"/>
      </clipPath>
      <path clip-path="url(#SVGID_32_)" d="M937.695,675.446c0,1.561-1.066,2.969-1.919,3.426c-0.808,0.456-2.923,1.111-4.94,1.111 c-7.012,0-10.851-4.188-10.851-11.255c0-6.348,3.839-11.996,10.491-11.996c5.748,0,8.224,4.285,8.321,8.365 c0,0.512-0.045,1.165-0.151,1.569c-0.145,0.852-2.564,1.462-4.287,1.766c-1.362,0.153-6.401,0.252-10.033,0.1 c0.054,5.146,3.175,8.069,7.611,8.069c2.271,0,4.744-0.753,5.649-1.264L937.695,675.446z M929.877,659.351 c-2.529,0-4.995,2.27-5.398,6.511c3.633,0.1,8.17,0.045,9.074,0c0.655-0.055,1.059-0.457,1.059-1.059 c0.055-3.076-1.506-5.452-4.688-5.452H929.877z"/>
    </g>
  </g>
</svg>